<mxfile host="65bd71144e">
    <diagram id="fSJW8GdHbxnsCgU5TYxR" name="Page-1">
        <mxGraphModel dx="1118" dy="790" grid="1" gridSize="10" guides="1" tooltips="1" connect="1" arrows="1" fold="1" page="1" pageScale="1" pageWidth="850" pageHeight="1100" math="0" shadow="0">
            <root>
                <mxCell id="0"/>
                <mxCell id="1" parent="0"/>
                <mxCell id="2" value="" style="rounded=0;whiteSpace=wrap;html=1;" vertex="1" parent="1">
                    <mxGeometry x="10" y="10" width="830" height="70" as="geometry"/>
                </mxCell>
                <mxCell id="3" value="" style="rounded=0;whiteSpace=wrap;html=1;" vertex="1" parent="1">
                    <mxGeometry x="10" y="100" width="830" height="60" as="geometry"/>
                </mxCell>
                <mxCell id="4" value="" style="rounded=0;whiteSpace=wrap;html=1;" vertex="1" parent="1">
                    <mxGeometry x="10" y="170" width="830" height="210" as="geometry"/>
                </mxCell>
                <mxCell id="5" value="" style="rounded=0;whiteSpace=wrap;html=1;" vertex="1" parent="1">
                    <mxGeometry x="10" y="400" width="830" height="300" as="geometry"/>
                </mxCell>
                <mxCell id="6" value="" style="rounded=0;whiteSpace=wrap;html=1;" vertex="1" parent="1">
                    <mxGeometry x="10" y="720" width="830" height="60" as="geometry"/>
                </mxCell>
                <mxCell id="7" value="" style="rounded=0;whiteSpace=wrap;html=1;" vertex="1" parent="1">
                    <mxGeometry x="210" y="115" width="430" height="30" as="geometry"/>
                </mxCell>
                <mxCell id="8" value="" style="rounded=0;whiteSpace=wrap;html=1;" vertex="1" parent="1">
                    <mxGeometry x="20" y="190" width="260" height="180" as="geometry"/>
                </mxCell>
                <mxCell id="9" value="" style="rounded=0;whiteSpace=wrap;html=1;" vertex="1" parent="1">
                    <mxGeometry x="290" y="190" width="270" height="180" as="geometry"/>
                </mxCell>
                <mxCell id="10" value="" style="rounded=0;whiteSpace=wrap;html=1;" vertex="1" parent="1">
                    <mxGeometry x="570" y="190" width="260" height="180" as="geometry"/>
                </mxCell>
                <mxCell id="11" value="Text" style="text;html=1;strokeColor=none;fillColor=none;align=center;verticalAlign=middle;whiteSpace=wrap;rounded=0;" vertex="1" parent="1">
                    <mxGeometry x="210" y="120" width="430" height="20" as="geometry"/>
                </mxCell>
                <mxCell id="12" value="" style="rounded=0;whiteSpace=wrap;html=1;" vertex="1" parent="1">
                    <mxGeometry x="30" y="230" width="240" height="130" as="geometry"/>
                </mxCell>
                <mxCell id="13" value="" style="rounded=0;whiteSpace=wrap;html=1;" vertex="1" parent="1">
                    <mxGeometry x="70" y="210" width="160" height="30" as="geometry"/>
                </mxCell>
                <mxCell id="14" value="" style="rounded=0;whiteSpace=wrap;html=1;" vertex="1" parent="1">
                    <mxGeometry x="40" y="320" width="220" height="30" as="geometry"/>
                </mxCell>
            </root>
        </mxGraphModel>
    </diagram>
</mxfile>